<svg xmlns="http://www.w3.org/2000/svg" width="48" height="45" viewBox="0 0 48 45">
    <defs>
        <filter id="x0l383s9fa">
            <feColorMatrix in="SourceGraphic" values="0 0 0 0 0.000000 0 0 0 0 0.784314 0 0 0 0 0.458824 0 0 0 1.000000 0"/>
        </filter>
    </defs>
    <g fill="none" fill-rule="evenodd">
        <g>
            <g filter="url(#x0l383s9fa)" transform="translate(-286.000000, -661.000000) translate(150.000000, 661.000000)">
                <g fill="#000" fill-rule="nonzero">
                    <path d="M14.136 21.69c-.616.096-1.077.71-1.077 1.474v1.027c0 .827.54 1.477 1.231 1.486.032.013.082.058.092.085.087.268.16.68.157.87-.37.503-.263 1.263.28 1.805l.725.726c.586.586 1.427.663 1.923.18.028-.013.09-.017.113-.007.256.13.604.374.736.51.096.615.71 1.076 1.474 1.076h1.027c.827 0 1.477-.54 1.487-1.231.012-.032.057-.082.084-.092.268-.087.68-.16.87-.157.502.37 1.263.263 1.805-.279l.726-.726c.585-.585.663-1.427.18-1.923-.013-.028-.017-.09-.007-.113.13-.256.374-.604.51-.736.615-.096 1.076-.71 1.076-1.474v-1.027c0-.827-.54-1.477-1.231-1.486-.032-.013-.082-.058-.092-.085-.087-.268-.16-.68-.157-.87.37-.503.263-1.263-.279-1.805l-.726-.726c-.586-.586-1.427-.663-1.923-.18-.028.013-.09.017-.113.007-.256-.13-.604-.374-.736-.51-.096-.615-.71-1.076-1.474-1.076H19.79c-.827 0-1.477.54-1.486 1.231-.013.032-.058.082-.085.092-.268.087-.68.16-.87.157-.503-.37-1.263-.263-1.805.28l-.726.725c-.248.248-.417.56-.474.88-.07.398.036.778.294 1.043.013.028.017.09.007.113-.13.256-.374.604-.51.736zm1.744-.103c.259-.505.191-1.165-.148-1.6.014-.026.036-.056.067-.088l.726-.726c.034-.034.067-.056.092-.07.567.386 1.594.115 2.033-.028.542-.177.962-.693 1.031-1.24.028-.008.064-.014.11-.014h1.026c.048 0 .087.007.114.016.131.666 1.05 1.206 1.463 1.417.505.26 1.166.191 1.6-.148.026.014.056.036.088.067l.726.726c.034.034.056.067.07.092-.385.567-.115 1.594.028 2.033.177.542.693.962 1.24 1.031.008.028.014.064.014.11v1.026c0 .048-.007.087-.016.114-.666.131-1.206 1.05-1.417 1.463-.259.505-.191 1.165.148 1.6-.014.026-.035.056-.067.088l-.726.726c-.034.034-.066.056-.092.07-.567-.385-1.594-.115-2.033.028-.542.177-.962.693-1.031 1.24-.028.008-.064.014-.11.014H19.79c-.048 0-.087-.007-.114-.016-.131-.666-1.05-1.206-1.463-1.417-.505-.26-1.165-.191-1.6.148-.026-.014-.056-.036-.088-.067l-.726-.726c-.034-.034-.056-.066-.07-.092.385-.567.115-1.594-.028-2.033-.177-.542-.693-.962-1.24-1.031-.008-.028-.014-.064-.014-.11v-1.026c0-.048.007-.087.016-.114.666-.131 1.206-1.05 1.417-1.463z" transform="translate(136.905286, 0.000000)"/>
                    <path d="M20.304 26.624c1.624 0 2.946-1.322 2.946-2.946 0-1.625-1.322-2.947-2.946-2.947-1.625 0-2.947 1.322-2.947 2.947 0 1.624 1.322 2.946 2.947 2.946zm0-4.505c.859 0 1.558.7 1.558 1.559s-.7 1.558-1.558 1.558c-.86 0-1.559-.7-1.559-1.558 0-.86.7-1.559 1.559-1.559zM38.832 20.012c-.04-.147-.076-.342-.084-.458.277-.457.123-1.117-.413-1.653l-.223-.223c-.574-.574-1.29-.71-1.746-.348-.136-.077-.298-.189-.386-.265-.127-.518-.702-.875-1.46-.875h-.315c-.813 0-1.416.41-1.48.99-.147.042-.343.077-.46.085-.456-.278-1.115-.123-1.652.413l-.223.223c-.574.574-.71 1.29-.348 1.746-.077.136-.189.298-.265.386-.518.127-.875.702-.875 1.46v.315c0 .813.411 1.416.991 1.48.04.147.076.343.084.459-.277.456-.123 1.116.413 1.653l.223.222c.575.575 1.29.71 1.746.348.136.077.298.19.386.266.127.518.702.874 1.46.874h.315c.813 0 1.416-.41 1.481-.99.146-.041.342-.077.458-.085.457.278 1.116.124 1.653-.413l.223-.222c.228-.228.394-.49.48-.755.124-.375.075-.73-.132-.991.077-.136.189-.298.265-.386.518-.128.875-.703.875-1.46v-.315c0-.814-.411-1.416-.991-1.481zm-.397 1.796c0 .065-.007.119-.016.16-.466.186-.82.753-1.006 1.117-.198.386-.178.861.031 1.226-.022.032-.052.068-.09.107l-.223.223c-.046.046-.089.079-.124.102-.462-.202-1.112-.05-1.5.076-.413.136-.736.487-.846.892-.039.006-.086.012-.141.012h-.315c-.065 0-.12-.008-.16-.016-.186-.466-.754-.82-1.117-1.007-.386-.197-.862-.177-1.226.032-.032-.022-.069-.052-.108-.09l-.222-.224c-.046-.045-.08-.088-.102-.123.202-.463.05-1.113-.077-1.5-.135-.414-.486-.736-.89-.847-.008-.038-.013-.085-.013-.14v-.315c0-.066.007-.12.016-.16.466-.186.82-.754 1.006-1.118.198-.386.178-.86-.031-1.225.022-.032.052-.069.09-.108l.223-.223c.046-.045.089-.078.124-.101.462.202 1.112.05 1.5-.077.413-.135.736-.486.847-.891.038-.007.085-.012.14-.012h.315c.065 0 .12.007.16.016.186.466.754.82 1.117 1.006.386.198.862.177 1.226-.031.032.022.069.051.108.09l.222.223c.046.046.08.089.102.124-.202.462-.05 1.112.077 1.5.135.413.486.736.89.846.008.038.013.085.013.14v.316z" transform="translate(136.905286, 0.000000)"/>
                    <path d="M34.363 19.318c-1.287 0-2.333 1.046-2.333 2.332 0 1.286 1.046 2.333 2.333 2.333 1.286 0 2.332-1.047 2.332-2.333 0-1.286-1.046-2.332-2.332-2.332zm0 3.277c-.522 0-.945-.424-.945-.945 0-.52.423-.945.945-.945.52 0 .944.424.944.945 0 .521-.423.945-.944.945zM33.599 33.223l-7.423 1.442c-.478-.874-1.46-1.476-2.593-1.476h-3.662l-.054.008c-.012.001-1.148.15-3.123-.568-1.18-.43-1.921-.712-2.462-.918-.467-.178-.776-.296-1.069-.393-.581-.194-3.423-.23-5.004-.236v-.073c0-.93-.756-1.685-1.685-1.685H.032v1.387h6.492c.161 0 .297.136.297.298v9.911c0 .162-.136.298-.297.298H.032v1.387h6.492c.748 0 1.384-.49 1.603-1.166 1.48.045 2.274.49 2.277.491l.058.035 6.114 2.205c1.686.598 2.936.749 3.768.749.75 0 1.16-.123 1.243-.15l.046-.016 4.994-2.497 8.503-4.022c1.35-.438 2.11-1.883 1.698-3.249-.414-1.37-1.856-2.155-3.229-1.762zm1.077 3.7l-.05.014-8.6 4.068-4.906 2.453c-.238.054-1.585.29-4.077-.595l-5.992-2.161c-.27-.145-1.228-.596-2.842-.65V32.47c2.041.008 4.21.069 4.565.164.265.088.563.202 1.014.374.545.207 1.291.492 2.482.925 2.113.768 3.425.682 3.746.644h3.567c.835 0 1.515.578 1.515 1.288 0 .71-.68 1.289-1.515 1.289h-3.605l-2.212-.05c-.257-.03-1.216-.098-1.908.525-.323.291-.697.842-.646 1.811.02.37.326.657.692.657h.037c.383-.02.677-.347.657-.73-.018-.337.045-.574.186-.704.229-.21.683-.2.82-.18l.045.007 2.305.051h3.63c1.543 0 2.81-1.117 2.896-2.521l7.416-1.44.068-.018c.313-.094.646-.06.937.096.292.157.504.415.599.728.196.65-.174 1.34-.824 1.536zM39.665 3.782h6.493V2.395h-6.493c-.748 0-1.383.49-1.602 1.166-1.482-.044-2.275-.49-2.278-.491l-.058-.035L29.614.83C26.408-.307 24.778.173 24.603.231l-.047.016-4.993 2.497-8.503 4.022c-1.35.438-2.11 1.883-1.699 3.249.342 1.132 1.385 1.863 2.51 1.863.238 0 .48-.033.72-.101l7.423-1.442c.478.874 1.46 1.476 2.592 1.476h3.662l.055-.008c.01-.001 1.148-.15 3.122.568 1.18.43 1.921.712 2.462.918.468.178.776.296 1.07.393.58.194 3.422.231 5.003.236v.073c0 .93.756 1.685 1.685 1.685h6.493V14.29h-6.493c-.16 0-.297-.136-.297-.298V4.08c0-.162.136-.298.297-.298zm-6.25 8.584c-.265-.088-.563-.202-1.014-.374-.545-.208-1.291-.492-2.481-.925-2.114-.768-3.426-.682-3.746-.644h-3.568c-.835 0-1.514-.578-1.514-1.288 0-.71.68-1.289 1.514-1.289h3.606l2.212.05c.257.03 1.216.098 1.907-.525.323-.291.698-.842.647-1.81-.02-.384-.348-.679-.73-.657-.382.02-.676.346-.656.729.018.338-.045.574-.187.704-.228.21-.683.2-.819.18l-.046-.007-2.305-.051h-3.629c-1.544 0-2.81 1.117-2.897 2.521l-7.415 1.44-.068.018c-.313.094-.646.06-.938-.096-.291-.156-.504-.415-.598-.728-.095-.313-.06-.646.096-.938.156-.291.415-.504.728-.598l.05-.015 8.599-4.068 4.907-2.453c.238-.054 1.585-.29 4.076.595l5.993 2.161c.27.145 1.228.596 2.841.65v7.582c-2.007-.008-4.215-.07-4.565-.164z" transform="translate(136.905286, 0.000000)"/>
                </g>
            </g>
        </g>
    </g>
</svg>
