<svg xmlns="http://www.w3.org/2000/svg" width="50" height="45" viewBox="0 0 50 45">
    <g fill="none" fill-rule="evenodd">
        <g fill="#00C875" fill-rule="nonzero">
            <g>
                <g>
                    <path d="M33.8 29.95L26.4 23.15 26.4 8.85 29.3 8.85 29.3 21.85 35.75 27.85z" transform="translate(-695.000000, -661.000000) translate(560.000000, 661.000000) translate(135.000000, 0.000000)"/>
                    <g>
                        <path d="M0 .2H15.6V3.1H0zM0 22.3H15.6V25.2H0zM0 11.25H11.25V14.15H0z" transform="translate(-695.000000, -661.000000) translate(560.000000, 661.000000) translate(135.000000, 0.000000) translate(0.000000, 9.500000)"/>
                    </g>
                    <path d="M27.85.35c-6 0-11.4 2.4-15.4 6.25H17c3.1-2.1 6.85-3.35 10.85-3.35 10.6 0 19.25 8.65 19.25 19.25s-8.65 19.25-19.25 19.25c-4.4 0-8.4-1.45-11.65-3.95h-4.3c4.05 4.2 9.7 6.85 16 6.85C40.05 44.65 50 34.7 50 22.5S40.05.35 27.85.35z" transform="translate(-695.000000, -661.000000) translate(560.000000, 661.000000) translate(135.000000, 0.000000)"/>
                </g>
            </g>
        </g>
    </g>
</svg>
