<svg xmlns="http://www.w3.org/2000/svg" width="98" height="43" viewBox="0 0 98 43">
        <defs>
          <filter id="nuct06e51a">
            <feColorMatrix
              in="SourceGraphic"
              values="0 0 0 0 1.000000 0 0 0 0 1.000000 0 0 0 0 1.000000 0 0 0 1.000000 0"
            />
          </filter>
        </defs>
        <g fill="none" fill-rule="evenodd">
          <g>
            <g>
              <g
                transform="translate(-208.000000, -2286.000000) translate(208.000000, 2286.000000)"
              >
                <rect width="43" height="43" fill="#F2623F" rx="3" />
                <g
                  fill="#FFF"
                  fill-rule="nonzero"
                  stroke="#FFF"
                  filter="url(#nuct06e51a)"
                  transform="translate(21.500000, 21.500000) rotate(23.400000) translate(-21.500000, -21.500000) translate(8.512838, 8.600000)"
                >
                  <path
                    d="M6.003 6.865L-1.598 18.925 9.993 18.925 9.002 17.438 1.015 17.438 6.036 9.568 11.988 18.925 13.669 18.925z"
                    transform="translate(6.035496, 12.894815) scale(-1, 1) rotate(-90.000000) translate(-6.035496, -12.894815)"
                  />
                  <path
                    d="M12.994 13.723L5.392 25.783 16.984 25.783 15.993 24.297 8.005 24.297 13.026 16.426 18.978 25.783 20.66 25.783z"
                    transform="translate(13.025942, 19.753377) scale(-1, 1) translate(-13.025942, -19.753377)"
                  />
                  <path
                    d="M19.852 6.864L12.251 18.924 23.842 18.924 22.851 17.438 14.864 17.438 19.885 9.567 25.837 18.924 27.518 18.924z"
                    transform="translate(19.884504, 12.894058) scale(-1, 1) rotate(90.000000) translate(-19.884504, -12.894058)"
                  />
                  <path
                    d="M12.993 0.006L5.392 12.065 16.983 12.065 15.992 10.579 8.005 10.579 13.026 2.708 18.977 12.065 20.659 12.065z"
                    transform="translate(13.025185, 6.035496) scale(-1, 1) rotate(-180.000000) translate(-13.025185, -6.035496)"
                  />
                </g>
              </g>
              <path
                fill="#18191F"
                fill-rule="nonzero"
                d="M55.695 16.928c1.859 0 3.39-.678 4.594-2.033.532-.605.91-1.254 1.134-1.948.23-.75.344-1.613.344-2.587v-.428h-5.358v1.839h3.233c-.09.913-.518 1.696-1.285 2.351-.767.65-1.632.975-2.595.975-1.13 0-2.18-.434-3.15-1.302-1.035-.935-1.553-2.125-1.553-3.57 0-1.4.465-2.564 1.394-3.493.93-.946 2.08-1.42 3.452-1.42 1.528 0 2.825.709 3.888 2.125l1.394-1.335c-.811-.93-1.637-1.601-2.477-2.016-.88-.414-1.825-.621-2.839-.621-1.887 0-3.488.658-4.804 1.973-1.315 1.31-1.973 2.906-1.973 4.788 0 1.842.646 3.42 1.94 4.736 1.293 1.31 2.847 1.966 4.66 1.966zm16.366-.244v-1.84H68.25V3.718h-1.957v12.967h5.77zm8.321.235c1.394 0 2.57-.493 3.528-1.478.85-.885 1.276-2.01 1.276-3.376V3.717H83.23v7.81c0 1.131-.182 1.946-.546 2.444-.543.745-1.31 1.117-2.3 1.117-.986 0-1.75-.372-2.293-1.117-.364-.515-.546-1.33-.546-2.444v-7.81h-1.957v8.348c0 1.366.425 2.491 1.276 3.376.952.985 2.125 1.478 3.52 1.478zm17.131-.235v-1.84h-5.199v-4.333h5.048v-1.84h-5.048V5.557h5.2v-1.84h-7.156v12.968h7.155zM55.566 40.764v-1.84h-3.813V27.798h-1.957v12.967h5.77zm6.124 0l1.444-3.15h5.552l1.36 3.15h2.142l-6.19-13.782-6.416 13.782h2.108zm6.198-4.989h-3.939l2.016-4.409 1.923 4.41zm11.81 4.989c.884 0 1.62-.081 2.208-.244.538-.168 1.022-.467 1.453-.898.717-.7 1.075-1.557 1.075-2.57 0-.773-.201-1.45-.604-2.033-.398-.587-.941-.999-1.63-1.234.711-.644 1.067-1.43 1.067-2.36 0-.51-.11-1.013-.328-1.512-.212-.492-.5-.904-.865-1.234-.358-.32-.798-.546-1.318-.68-.515-.135-1.207-.202-2.075-.202h-1.948v12.967h2.964zm-.395-7.399h-.613v-3.77h.688c.661 0 1.165.157 1.512.474.347.316.52.78.52 1.39 0 .627-.169 1.101-.507 1.423-.34.322-.872.483-1.6.483zm.596 5.56h-1.21v-3.922h.992c1.052 0 1.783.187 2.192.562.42.381.63.851.63 1.411 0 .577-.219 1.053-.656 1.428-.414.347-1.063.52-1.948.52zm13.422 2.074c1.187 0 2.18-.392 2.982-1.176.795-.778 1.192-1.763 1.192-2.956 0-.89-.243-1.642-.73-2.255-.488-.613-1.258-1.132-2.31-1.558l-1.293-.529c-.941-.386-1.411-.896-1.411-1.528 0-.46.179-.84.537-1.143.358-.308.81-.461 1.352-.461.443 0 .804.09 1.084.268.268.157.551.493.848 1.008l1.587-.94c-.84-1.456-2.007-2.184-3.502-2.184-1.109 0-2.035.33-2.78.99-.745.656-1.117 1.47-1.117 2.445 0 1.444.888 2.542 2.662 3.292l1.252.52c.325.14.605.288.84.442.235.154.427.319.575.495.148.177.258.37.327.58.07.21.105.44.105.693 0 .627-.201 1.144-.604 1.553-.403.409-.91.613-1.52.613-.773 0-1.36-.28-1.764-.84-.224-.29-.38-.817-.47-1.578l-1.982.436c.179 1.21.63 2.147 1.352 2.814.733.666 1.663 1 2.788 1z"
                transform="translate(-208.000000, -2286.000000) translate(208.000000, 2286.000000)"
              />
            </g>
          </g>
        </g>
      </svg>