<svg xmlns="http://www.w3.org/2000/svg" width="64" height="42" viewBox="0 0 64 42">
    <g fill="none" fill-rule="evenodd">
        <g fill="#00C875" fill-rule="nonzero" stroke="#FAFAFA" stroke-width="3">
            <g>
                <g>
                    <path d="M57.335.372c.736 0 1.443.292 1.963.813.52.52.813 1.226.813 1.962v22.479c0 1.911-1.55 3.461-3.461 3.461-1.912 0-3.462-1.55-3.462-3.461v-10.27c-.001-.482-.3-.912-.75-1.081-.129-.049-.264-.074-.402-.073-.336 0-.656.147-.876.402L36.714 31.32c-1.314 1.477-3.2 2.32-5.176 2.311-1.992-.002-3.888-.852-5.215-2.337l-6.168-7.867c-.209-.265-.522-.425-.859-.44h-.004c-.337-.01-.661.124-.893.367L6.09 36.544c-.85.914-2.124 1.3-3.338 1.01C1.538 37.267.574 36.347.23 35.149c-.346-1.199-.02-2.49.852-3.382l13.153-14.055c1.343-1.418 3.218-2.208 5.17-2.178 1.953.03 3.803.876 5.102 2.334l6.138 7.832c.213.272.536.434.882.441.342-.001.668-.145.9-.397l14.285-16.54c.294-.342.362-.824.174-1.234-.188-.41-.597-.673-1.048-.674h-10.98c-1.912 0-3.461-1.55-3.461-3.462 0-1.911 1.55-3.461 3.461-3.461h22.478z" transform="translate(-1098.000000, -662.000000) translate(970.000000, 664.000000) translate(129.888889, 0.000000)"/>
                </g>
            </g>
        </g>
    </g>
</svg>
