<svg xmlns="http://www.w3.org/2000/svg" width="31" height="30" viewBox="0 0 31 30">
    <g fill="none" fill-rule="evenodd">
        <g fill="#A3A3A3" fill-rule="nonzero" stroke="#FAFAFA" stroke-width="2">
            <g>
                <g>
                    <g>
                        <path d="M21.688 28l5.437-.001c.483 0 .875-.392.875-.875-.408-9.167 2.149-18.84-7.394-18.84-1.836 0-3.297.627-4.35 1.455 0-1.704-1.843-.762-6.095-1.015-.483 0-.875.392-.875.875.352 16.527-.787 18.4.875 18.4h5.436c1.579 0 .574-2.226.875-9.553 0-3.026.875-3.619 2.387-3.619 1.673 0 1.954 1.162 1.954 3.766.3 7.195-.697 9.407.875 9.407zM1.309 8.726c-1.657 0-.523 1.849-.875 18.399 0 .483.392.875.875.875h5.442c1.657 0 .523-1.85.875-18.4 0-1.51-2.194-.619-6.317-.874zM4.027 0c-5.338 0-5.306 8.084 0 8.084C9.33 8.084 9.372 0 4.027 0z" transform="translate(-1260.000000, -4448.000000) translate(0.000000, 4334.000000) translate(1207.000000, 115.000000) translate(54.222222, 0.000000)"/>
                    </g>
                </g>
            </g>
        </g>
    </g>
</svg>
