<svg xmlns="http://www.w3.org/2000/svg" width="49" height="70" viewBox="0 0 49 70">
    <g fill="none" fill-rule="evenodd">
        <g>
            <g>
                <g transform="translate(-150.000000, -50.000000) translate(150.000000, 50.000000)">
                    <rect width="48.747" height="48.747" fill="#00C875" rx="3"/>
                    <g fill="#FFF" fill-rule="nonzero" stroke="#FFF">
                        <g>
                            <path d="M10.876 2.953L-2.858 24.741 18.084 24.741 16.293 22.055 1.863 22.055 10.935 7.836 21.687 24.741 24.725 24.741z" transform="translate(24.422006, 24.324513) scale(-1, -1) rotate(90.000000) translate(-24.422006, -24.324513) translate(13.405292, 10.383008) translate(11.016713, 13.871166) scale(-1, -1) translate(-11.016713, -13.871166) translate(0.097493, 0.027155) translate(10.933684, 13.846854) scale(-1, 1) rotate(90.000000) translate(-10.933684, -13.846854)"/>
                        </g>
                    </g>
                </g>
                <path fill="#18191F" fill-rule="nonzero" d="M4.154 69.61c.822 0 1.506-.075 2.053-.226.5-.157.95-.435 1.35-.836.667-.65 1-1.447 1-2.389 0-.718-.188-1.348-.562-1.889-.37-.546-.875-.929-1.515-1.148.661-.598.992-1.33.992-2.193 0-.474-.102-.942-.305-1.406-.198-.458-.466-.84-.804-1.147-.333-.297-.742-.508-1.226-.633-.479-.125-1.121-.187-1.928-.187H1.398V69.61h2.756zm-.367-6.878h-.57v-3.505h.64c.614 0 1.083.147 1.405.44.323.295.484.725.484 1.293 0 .583-.157 1.024-.472 1.323-.315.3-.81.449-1.487.449zM4.34 67.9H3.217v-3.646h.921c.979 0 1.658.175 2.038.523.39.354.585.792.585 1.312 0 .536-.203.979-.609 1.327-.385.323-.989.484-1.811.484zm9.25 1.71l1.342-2.928h5.16l1.265 2.928h1.99l-5.753-12.811-5.964 12.811h1.96zm5.76-4.637h-3.66l1.873-4.1 1.788 4.1zm11.092 4.856c1.104 0 2.027-.365 2.772-1.093.739-.724 1.108-1.64 1.108-2.748 0-.828-.226-1.527-.679-2.097-.453-.57-1.168-1.052-2.147-1.448l-1.202-.492c-.874-.359-1.312-.832-1.312-1.42 0-.427.167-.781.5-1.062.333-.287.752-.43 1.257-.43.411 0 .747.084 1.007.25.25.146.513.458.789.937l1.475-.874c-.78-1.354-1.866-2.03-3.255-2.03-1.031 0-1.892.307-2.585.92-.692.61-1.038 1.367-1.038 2.273 0 1.343.825 2.363 2.475 3.06l1.163.484c.302.13.562.267.78.41.22.143.398.297.536.46.138.165.24.344.304.54.065.195.098.41.098.643 0 .583-.188 1.065-.562 1.445-.375.38-.846.57-1.413.57-.719 0-1.265-.26-1.64-.781-.208-.27-.354-.76-.437-1.468l-1.843.406c.167 1.124.586 1.996 1.257 2.616.682.619 1.546.929 2.592.929zm15.066-.219V67.9h-4.833v-4.028h4.692v-1.71h-4.692v-2.896h4.833v-1.71h-6.652V69.61h6.652z" transform="translate(-150.000000, -50.000000) translate(150.000000, 50.000000)"/>
            </g>
        </g>
    </g>
</svg>
