<svg xmlns="http://www.w3.org/2000/svg" width="113" height="49" viewBox="0 0 113 49">
    <g fill="none" fill-rule="evenodd">
        <g>
            <g>
                <g>
                    <g transform="translate(-150.000000, -4388.000000) translate(0.000000, 4334.000000) translate(150.000000, 54.000000) translate(0.000000, 0.052125)">
                        <rect width="48.747" height="48.747" fill="#00C875" rx="3"/>
                        <g fill="#FFF" fill-rule="nonzero" stroke="#FFF">
                            <g>
                                <path d="M10.876 2.953L-2.858 24.741 18.084 24.741 16.293 22.055 1.863 22.055 10.935 7.836 21.687 24.741 24.725 24.741z" transform="translate(24.422006, 24.324513) scale(-1, -1) rotate(90.000000) translate(-24.422006, -24.324513) translate(13.405292, 10.383008) translate(11.016713, 13.871166) scale(-1, -1) translate(-11.016713, -13.871166) translate(0.097493, 0.027155) translate(10.933684, 13.846854) scale(-1, 1) rotate(90.000000) translate(-10.933684, -13.846854)"/>
                            </g>
                        </g>
                    </g>
                    <path fill="#18191F" fill-rule="nonzero" d="M61.782 45.53c1.01 0 1.85-.092 2.521-.278.614-.192 1.166-.533 1.659-1.026.818-.798 1.227-1.776 1.227-2.933 0-.882-.23-1.655-.69-2.32-.454-.671-1.074-1.14-1.86-1.41.811-.734 1.217-1.632 1.217-2.693 0-.582-.125-1.157-.374-1.726-.243-.562-.572-1.032-.987-1.409-.41-.364-.91-.623-1.505-.776-.588-.154-1.378-.23-2.368-.23h-2.224V45.53h3.384zm-.45-8.446h-.7V32.78h.786c.754 0 1.329.18 1.725.542.396.36.594.89.594 1.586 0 .716-.193 1.258-.58 1.625-.386.368-.995.551-1.826.551zm.68 6.347h-1.38v-4.477h1.13c1.202 0 2.036.214 2.503.642.48.435.719.972.719 1.61 0 .659-.25 1.202-.748 1.63-.473.397-1.214.595-2.224.595zm11.357 2.1l1.65-3.596h6.336l1.553 3.595h2.444L78.287 29.8 70.963 45.53h2.406zm7.075-5.695h-4.496l2.3-5.033 2.196 5.033zm13.62 5.963c1.355 0 2.49-.448 3.403-1.342.908-.889 1.361-2.014 1.361-3.375 0-1.016-.278-1.874-.834-2.574-.556-.7-1.434-1.293-2.636-1.778l-1.476-.604c-1.074-.441-1.61-1.023-1.61-1.745 0-.524.204-.959.613-1.304.409-.351.923-.527 1.543-.527.505 0 .917.102 1.237.307.307.179.63.562.968 1.15l1.812-1.074c-.959-1.661-2.291-2.492-3.998-2.492-1.265 0-2.323.377-3.173 1.131-.85.748-1.275 1.678-1.275 2.79 0 1.649 1.013 2.901 3.039 3.758l1.428.594c.371.16.69.328.96.503.268.176.486.365.656.566.17.201.294.422.374.662.08.24.12.503.12.79 0 .716-.23 1.307-.69 1.774-.46.466-1.04.7-1.736.7-.882 0-1.553-.32-2.013-.959-.256-.332-.435-.933-.537-1.802l-2.262.498c.204 1.38.719 2.451 1.543 3.212.837.76 1.898 1.14 3.183 1.14zm18.5-.269v-2.1h-5.935v-4.946h5.762v-2.1h-5.762v-3.556h5.934v-2.1h-8.168V45.53h8.168z" transform="translate(-150.000000, -4388.000000) translate(0.000000, 4334.000000) translate(150.000000, 54.000000)"/>
                </g>
            </g>
        </g>
    </g>
</svg>
